<svg>
    <symbol id="icon-chat" viewBox="0 0 21 19" xmlns="http://www.w3.org/2000/svg">
        <path d="M10.6909 0.0620117C5.19092 0.0620117 0.690918 3.64201 0.690918 8.06201C0.740918 10.212 1.75092 12.232 3.44092 13.562C3.44092 14.162 3.02092 15.732 0.690918 18.062C3.06092 17.952 5.33092 17.062 7.16092 15.562C8.30092 15.892 9.50092 16.062 10.6909 16.062C16.1909 16.062 20.6909 12.482 20.6909 8.06201C20.6909 3.64201 16.1909 0.0620117 10.6909 0.0620117ZM10.6909 14.062C6.27092 14.062 2.69092 11.372 2.69092 8.06201C2.69092 4.75201 6.27092 2.06201 10.6909 2.06201C15.1109 2.06201 18.6909 4.75201 18.6909 8.06201C18.6909 11.372 15.1109 14.062 10.6909 14.062Z" />
    </symbol>

    <symbol id="icon-bell" viewBox="0 0 19 22"  xmlns="http://www.w3.org/2000/svg">
        <path d="M7.03113 19.5985H11.0311C11.0311 20.6985 10.1311 21.5985 9.03113 21.5985C7.93113 21.5985 7.03113 20.6985 7.03113 19.5985ZM18.0311 17.5985V18.5985H0.0311279V17.5985L2.03113 15.5985V9.59851C2.03113 6.49851 4.03113 3.79851 7.03113 2.89851V2.59851C7.03113 1.49851 7.93113 0.598511 9.03113 0.598511C10.1311 0.598511 11.0311 1.49851 11.0311 2.59851V2.89851C14.0311 3.79851 16.0311 6.49851 16.0311 9.59851V15.5985L18.0311 17.5985ZM14.0311 9.59851C14.0311 6.79851 11.8311 4.59851 9.03113 4.59851C6.23113 4.59851 4.03113 6.79851 4.03113 9.59851V16.5985H14.0311V9.59851Z" />
    </symbol>
    <symbol id ="icon-power" viewBox="0 0 18 18"  xmlns="http://www.w3.org/2000/svg">
        <path d="M10 0H8V10H10V0ZM14.83 2.17L13.41 3.59C14.99 4.86 16 6.81 16 9C16 12.87 12.87 16 9 16C5.13 16 2 12.87 2 9C2 6.81 3.01 4.86 4.58 3.58L3.17 2.17C1.23 3.82 0 6.26 0 9C0 13.97 4.03 18 9 18C13.97 18 18 13.97 18 9C18 6.26 16.77 3.82 14.83 2.17Z"  />
    </symbol>

    <symbol id="icon-play" viewBox="0 0 12 15"  xmlns="http://www.w3.org/2000/svg">
        <path d="M2 3L9 7.44L2 12V3ZM0.5 0.44V14.44L11.5 7.44" />
    </symbol>
    <symbol id="icon-person" viewBox="0 0 16 16" xmlns="http://www.w3.org/2000/svg">
        <path d="M8 1.9C9.16 1.9 10.1 2.84 10.1 4C10.1 5.16 9.16 6.1 8 6.1C6.84 6.1 5.9 5.16 5.9 4C5.9 2.84 6.84 1.9 8 1.9ZM8 10.9C10.97 10.9 14.1 12.36 14.1 13V14.1H1.9V13C1.9 12.36 5.03 10.9 8 10.9ZM8 0C5.79 0 4 1.79 4 4C4 6.21 5.79 8 8 8C10.21 8 12 6.21 12 4C12 1.79 10.21 0 8 0ZM8 9C5.33 9 0 10.34 0 13V16H16V13C16 10.34 10.67 9 8 9Z"  />
    </symbol>
    <symbol id ="icon-chatlogo" viewBox="0 0 20 20" xmlns="http://www.w3.org/2000/svg">
        <path d="M18 0H2C0.9 0 0.00999999 0.9 0.00999999 2L0 20L4 16H18C19.1 16 20 15.1 20 14V2C20 0.9 19.1 0 18 0ZM4 7H16V9H4V7ZM12 12H4V10H12V12ZM16 6H4V4H16V6Z" />
    </symbol>
        
</svg>