<svg>
    <defs>
        <symbol width="21" height="19" viewBox="0 0 21 19" fill="none" xmlns="http://www.w3.org/2000/svg">
            <path d="M10.6909 0.0620117C5.19092 0.0620117 0.690918 3.64201 0.690918 8.06201C0.740918 10.212 1.75092 12.232 3.44092 13.562C3.44092 14.162 3.02092 15.732 0.690918 18.062C3.06092 17.952 5.33092 17.062 7.16092 15.562C8.30092 15.892 9.50092 16.062 10.6909 16.062C16.1909 16.062 20.6909 12.482 20.6909 8.06201C20.6909 3.64201 16.1909 0.0620117 10.6909 0.0620117ZM10.6909 14.062C6.27092 14.062 2.69092 11.372 2.69092 8.06201C2.69092 4.75201 6.27092 2.06201 10.6909 2.06201C15.1109 2.06201 18.6909 4.75201 18.6909 8.06201C18.6909 11.372 15.1109 14.062 10.6909 14.062Z" fill="#707C97" />

        </symbol>
    </defs>
</svg>